<svg xmlns="http://www.w3.org/2000/svg" viewBox="0 0 680 360" width="680" height="360">
  <defs>
    <linearGradient id="greenGrad" x1="0" y1="0" x2="0" y2="1">
      <stop offset="0%" stop-color="#34d399"/>
      <stop offset="100%" stop-color="#10b981"/>
    </linearGradient>
    <linearGradient id="redGrad" x1="0" y1="0" x2="0" y2="1">
      <stop offset="0%" stop-color="#f87171"/>
      <stop offset="100%" stop-color="#ef4444"/>
    </linearGradient>
    <filter id="shadow" x="-4%" y="-4%" width="108%" height="116%">
      <feDropShadow dx="0" dy="3" stdDeviation="4" flood-opacity="0.1"/>
    </filter>
  </defs>

  <rect width="680" height="360" rx="16" fill="#ffffff"/>

  <text x="340" y="42" text-anchor="middle" fill="#6b7280" font-family="Segoe UI, Arial, sans-serif" font-size="13">Internal benchmarking · refer to task.json for full details</text>

  <line x1="130" y1="80" x2="560" y2="80" stroke="#e5e7eb" stroke-width="1"/>
  <line x1="130" y1="130" x2="560" y2="130" stroke="#e5e7eb" stroke-width="1"/>
  <line x1="130" y1="180" x2="560" y2="180" stroke="#e5e7eb" stroke-width="1"/>
  <line x1="130" y1="230" x2="560" y2="230" stroke="#e5e7eb" stroke-width="1"/>
  <line x1="130" y1="280" x2="560" y2="280" stroke="#e5e7eb" stroke-width="1"/>

  <text x="118" y="84" text-anchor="end" fill="#9ca3af" font-family="Segoe UI, Arial, sans-serif" font-size="11">100%</text>
  <text x="118" y="134" text-anchor="end" fill="#9ca3af" font-family="Segoe UI, Arial, sans-serif" font-size="11">80%</text>
  <text x="118" y="184" text-anchor="end" fill="#9ca3af" font-family="Segoe UI, Arial, sans-serif" font-size="11">60%</text>
  <text x="118" y="234" text-anchor="end" fill="#9ca3af" font-family="Segoe UI, Arial, sans-serif" font-size="11">40%</text>
  <text x="118" y="284" text-anchor="end" fill="#9ca3af" font-family="Segoe UI, Arial, sans-serif" font-size="11">20%</text>

  <line x1="130" y1="300" x2="560" y2="300" stroke="#d1d5db" stroke-width="2"/>

  <rect x="200" y="252" width="120" height="48" rx="6" fill="url(#redGrad)" filter="url(#shadow)"/>
  <text x="260" y="282" text-anchor="middle" fill="white" font-family="Segoe UI, Arial, sans-serif" font-size="20" font-weight="700">22%</text>

  <rect x="370" y="104" width="120" height="196" rx="6" fill="url(#greenGrad)" filter="url(#shadow)"/>
  <text x="430" y="210" text-anchor="middle" fill="white" font-family="Segoe UI, Arial, sans-serif" font-size="20" font-weight="700">89%</text>

  <text x="260" y="326" text-anchor="middle" fill="#ef4444" font-family="Segoe UI, Arial, sans-serif" font-size="14" font-weight="600">window-use</text>
  <text x="430" y="326" text-anchor="middle" fill="#10b981" font-family="Segoe UI, Arial, sans-serif" font-size="14" font-weight="600">Auto Use</text>
</svg>
